<?xml version="1.0" encoding="UTF-8"?>
<svg xmlns="http://www.w3.org/2000/svg" xmlns:rdf="http://www.w3.org/1999/02/22-rdf-syntax-ns#" xmlns:dc="http://purl.org/dc/elements/1.1/" xmlns:cc="http://creativecommons.org/ns#" x="0px" y="0px" width="144px" height="144px" viewBox="0 0 144 144" version="1.1"><metadata><rdf:RDF><cc:Work rdf:about=""><dc:date>2020</dc:date><dc:creator>Mozilla Foundation</dc:creator><dc:creator>Zachary Catlin</dc:creator><cc:license rdf:resource="http://creativecommons.org/licenses/by/4.0/" /></cc:Work></rdf:RDF></metadata><path d="m67.743 31.035c0 -4.144 6.216 -4.144 6.216 0 0 4.144 -6.216 4.144 -6.216 0m-37.077 28.14c0 -4.144 6.216 -4.144 6.216 0 0 4.144 -6.216 4.144 -6.216 0m74.153 0.145c0 -4.144 6.216 -4.144 6.216 0 0 4.144 -6.216 4.144 -6.216 0m-60.102 43.652c0 -4.144 6.216 -4.144 6.216 0 0 4.144 -6.216 4.144 -6.216 0m46.051 0.145c0 -4.144 6.216 -4.144 6.216 0 0 4.144 -6.216 4.144 -6.216 0m-26.851 -70.062 4.786 5.021c1.082 1.133 2.874 1.175 4.006 0.092l5.355 -5.122c11.048 2.07 20.628 8.892 26.196 18.657l-3.666 8.28c-0.633 1.433 0.013 3.109 1.442 3.744l7.058 3.135c0.878 10.055 -1.666 21.082 -10.792 30.62l-6.573 -1.413c-1.531 -0.328 -3.037 0.646 -3.365 2.18l-1.56 7.28c-10.152 4.598 -21.804 4.543 -31.911 -0.153l-1.559 -7.28C53.006 96.564 51.5 95.588 49.97 95.917l-6.427 1.38C33.371 87.019 32.0175 73.791 32.968 66.553l6.695 -2.975c1.43 -0.635 2.076 -2.311 1.441 -3.744L37.616 51.950C41.931 44.226 50.379 35.703 63.917 33.055Zm54.32 33.941 -0.125 -1.28 3.776 -3.522c0.768 -0.716 0.481 -2.157 -0.501 -2.523l-4.827 -1.805 -0.378 -1.246 3.011 -4.182c0.614 -0.85 0.05 -2.207 -0.984 -2.377l-5.09 -0.828 -0.612 -1.143 2.139 -4.695c0.438 -0.956 -0.376 -2.179 -1.428 -2.139l-5.166 0.18 -0.816 -0.99 1.187 -5.032c0.24 -1.022 -0.797 -2.06 -1.819 -1.82l-5.031 1.186 -0.992 -0.816 0.181 -5.166c0.04 -1.046 -1.184 -1.863 -2.138 -1.429l-4.694 2.14 -1.143 -0.613 -0.83 -5.091c-0.168 -1.032 -1.526 -1.596 -2.376 -0.984l-4.185 3.011 -1.244 -0.377 -1.805 -4.828C81.981 19.643 80.539 19.36 79.825 20.124l-3.522 3.779 -1.28 -0.125 -2.72 -4.395c-0.55 -0.89 -2.023 -0.89 -2.571 0l-2.72 4.395 -1.281 0.125 -3.523 -3.779c-0.714 -0.764 -2.156 -0.481 -2.522 0.503l-1.805 4.828 -1.245 0.377 -4.184 -3.011c-0.85 -0.614 -2.209 -0.048 -2.377 0.984l-0.83 5.091 -1.143 0.613 -4.694 -2.14c-0.954 -0.436 -2.178 0.383 -2.138 1.429l0.18 5.166 -0.992 0.816 -5.031 -1.186c-1.022 -0.238 -2.06 0.798 -1.82 1.82l1.185 5.032 -0.814 0.99 -5.166 -0.18c-1.042 -0.03 -1.863 1.183 -1.429 2.139l2.14 4.695 -0.613 1.143 -5.09 0.828c-1.034 0.168 -1.594 1.527 -0.984 2.377l3.011 4.182 -0.378 1.246 -4.828 1.805c-0.98 0.366 -1.267 1.807 -0.501 2.523l3.777 3.522 -0.125 1.28 -4.394 2.72c-0.89 0.55 -0.89 2.023 0 2.571l4.394 2.72 0.125 1.28 -3.777 3.523c-0.766 0.714 -0.479 2.154 0.501 2.522l4.828 1.805 0.378 1.246 -3.011 4.183c-0.612 0.852 -0.049 2.21 0.985 2.376l5.089 0.828 0.613 1.145 -2.14 4.693c-0.436 0.954 0.387 2.181 1.429 2.139l5.164 -0.181 0.816 0.992 -1.185 5.033c-0.24 1.02 0.798 2.056 1.82 1.816l5.031 -1.185 0.992 0.814 -0.18 5.167c-0.04 1.046 1.184 1.864 2.138 1.428l4.694 -2.139 1.143 0.613 0.83 5.088c0.168 1.036 1.527 1.596 2.377 0.986l4.182 -3.013 1.246 0.379 1.805 4.826c0.366 0.98 1.808 1.269 2.522 0.501l3.523 -3.777 1.281 0.128 2.72 4.394c0.548 0.886 2.021 0.888 2.571 0l2.72 -4.394 1.28 -0.128 3.522 3.777c0.714 0.768 2.156 0.479 2.522 -0.501l1.805 -4.826 1.246 -0.379 4.183 3.013c0.85 0.61 2.208 0.048 2.376 -0.986l0.83 -5.088 1.143 -0.613 4.694 2.139c0.954 0.436 2.176 -0.38 2.138 -1.428l-0.18 -5.167 0.991 -0.814 5.031 1.185c1.022 0.24 2.059 -0.796 1.819 -1.816l-1.185 -5.033 0.814 -0.992 5.166 0.181c1.042 0.042 1.866 -1.185 1.428 -2.139l-2.139 -4.693 0.612 -1.145 5.09 -0.828c1.036 -0.166 1.598 -1.524 0.984 -2.376l-3.011 -4.183 0.378 -1.246 4.827 -1.805c0.982 -0.368 1.269 -1.808 0.501 -2.522l-3.776 -3.523 0.125 -1.28 4.394 -2.72c0.89 -0.548 0.891 -2.021 0.001 -2.571z" style="stroke: none; fill: #000;" /></svg>
