<?xml version="1.0" encoding="UTF-8"?>
<svg
   xmlns="http://www.w3.org/2000/svg"
   xmlns:rdf="http://www.w3.org/1999/02/22-rdf-syntax-ns#"
   xmlns:dc="http://purl.org/dc/elements/1.1/"
   xmlns:cc="http://creativecommons.org/ns#"
   x="0px"
   y="0px"
   width="144px"
   height="144px"
   viewBox="0 0 144 144"
   version="1.1">
  <metadata>
    <rdf:RDF>
      <cc:Work rdf:about="">
        <dc:format>image/svg+xml</dc:format>
        <dc:type rdf:resource="http://purl.org/dc/dcmitype/StillImage" />
        <dc:title>Gear part of logo for the Rust programming language</dc:title>
        <cc:license rdf:resource="http://creativecommons.org/licenses/by/4.0/" />
      </cc:Work>
      <cc:License rdf:about="http://creativecommons.org/licenses/by/4.0/">
        <cc:permits rdf:resource="http://creativecommons.org/ns#Reproduction" />
        <cc:permits rdf:resource="http://creativecommons.org/ns#Distribution" />
        <cc:requires rdf:resource="http://creativecommons.org/ns#Notice" />
        <cc:requires rdf:resource="http://creativecommons.org/ns#Attribution" />
        <cc:permits rdf:resource="http://creativecommons.org/ns#DerivativeWorks" />
      </cc:License>
    </rdf:RDF>
  </metadata>
  <path
     d="m 67.743,31.035 c 0,-4.143998 6.216,-4.143998 6.216,0 0,4.143998 -6.216,4.143998 -6.216,0 m -37.077,28.14 c 0,-4.143998 6.216,-4.143998 6.216,0 0,4.143998 -6.216,4.143998 -6.216,0 m 74.153,0.145 c 0,-4.143998 6.216,-4.143998 6.216,0 0,4.143998 -6.216,4.143998 -6.216,0 m -60.102,43.652 c 0,-4.143998 6.216,-4.143998 6.216,0 0,4.144 -6.216,4.144 -6.216,0 m 46.051,0.145 c 0,-4.143998 6.216,-4.143998 6.216,0 0,4.144 -6.216,4.144 -6.216,0 m -26.851,-70.062 4.786,5.021 c 1.082,1.133 2.874,1.175 4.006,0.092 l 5.355,-5.122 c 11.048462,2.069501 20.628163,8.892241 26.196,18.657 l -3.666,8.28 c -0.633,1.433 0.013,3.109 1.442,3.744 l 7.058,3.135 c 0.87756,10.055178 -1.6659,21.082456 -10.792,30.62 l -6.573,-1.413 c -1.531,-0.328 -3.037,0.646 -3.365,2.18 l -1.56,7.28 c -10.151738,4.59847 -21.803824,4.5426 -31.911,-0.153 l -1.559,-7.28 C 53.006,96.564 51.5,95.588 49.97,95.917 l -6.427,1.38 C 33.370653,87.018505 32.017504,73.791358 32.968,66.553 l 6.695,-2.975 c 1.43,-0.635 2.076,-2.311 1.441,-3.744 L 37.616048,51.950164 C 41.930633,44.226394 50.379242,35.702898 63.917,33.055 Z m 54.32,33.941 -0.125,-1.28 3.776,-3.522 c 0.768,-0.716 0.481,-2.157 -0.501,-2.523 l -4.827,-1.805 -0.378,-1.246 3.011,-4.182 c 0.614,-0.85 0.05,-2.207 -0.984,-2.377 l -5.09,-0.828 -0.612,-1.143 2.139,-4.695 c 0.438,-0.956 -0.376,-2.179 -1.428,-2.139 l -5.166,0.18 -0.816,-0.99 1.187,-5.032 c 0.24,-1.022 -0.797,-2.06 -1.819,-1.82 l -5.031,1.186 -0.992,-0.816 0.181,-5.166 c 0.04,-1.046 -1.184,-1.863 -2.138,-1.429 l -4.694,2.14 -1.143,-0.613 -0.83,-5.091 c -0.168,-1.032 -1.526,-1.596 -2.376,-0.984 l -4.185,3.011 -1.244,-0.377 -1.805,-4.828 C 81.981,19.643 80.539,19.36 79.825,20.124 l -3.522,3.779 -1.28,-0.125 -2.72,-4.395 c -0.55,-0.89 -2.023,-0.89 -2.571,0 l -2.72,4.395 -1.281,0.125 -3.523,-3.779 c -0.714,-0.764 -2.156,-0.481 -2.522,0.503 l -1.805,4.828 -1.245,0.377 -4.184,-3.011 c -0.85,-0.614 -2.209,-0.048 -2.377,0.984 l -0.83,5.091 -1.143,0.613 -4.694,-2.14 c -0.954,-0.436 -2.178,0.383 -2.138,1.429 l 0.18,5.166 -0.992,0.816 -5.031,-1.186 c -1.022,-0.238 -2.06,0.798 -1.82,1.82 l 1.185,5.032 -0.814,0.99 -5.166,-0.18 c -1.042,-0.03 -1.863,1.183 -1.429,2.139 l 2.14,4.695 -0.613,1.143 -5.09,0.828 c -1.034,0.168 -1.594,1.527 -0.984,2.377 l 3.011,4.182 -0.378,1.246 -4.828,1.805 c -0.98,0.366 -1.267,1.807 -0.501,2.523 l 3.777,3.522 -0.125,1.28 -4.394,2.72 c -0.89,0.55 -0.89,2.023 0,2.571 l 4.394,2.72 0.125,1.28 -3.777,3.523 c -0.766,0.714 -0.479,2.154 0.501,2.522 l 4.828,1.805 0.378,1.246 -3.011,4.183 c -0.612,0.852 -0.049,2.21 0.985,2.376 l 5.089,0.828 0.613,1.145 -2.14,4.693 c -0.436,0.954 0.387,2.181 1.429,2.139 l 5.164,-0.181 0.816,0.992 -1.185,5.033 c -0.24,1.02 0.798,2.056 1.82,1.816 l 5.031,-1.185 0.992,0.814 -0.18,5.167 c -0.04,1.046 1.184,1.864 2.138,1.428 l 4.694,-2.139 1.143,0.613 0.83,5.088 c 0.168,1.036 1.527,1.596 2.377,0.986 l 4.182,-3.013 1.246,0.379 1.805,4.826 c 0.366,0.98 1.808,1.269 2.522,0.501 l 3.523,-3.777 1.281,0.128 2.72,4.394 c 0.548,0.886 2.021,0.888 2.571,0 l 2.72,-4.394 1.28,-0.128 3.522,3.777 c 0.714,0.768 2.156,0.479 2.522,-0.501 l 1.805,-4.826 1.246,-0.379 4.183,3.013 c 0.85,0.61 2.208,0.048 2.376,-0.986 l 0.83,-5.088 1.143,-0.613 4.694,2.139 c 0.954,0.436 2.176,-0.38 2.138,-1.428 l -0.18,-5.167 0.991,-0.814 5.031,1.185 c 1.022,0.24 2.059,-0.796 1.819,-1.816 l -1.185,-5.033 0.814,-0.992 5.166,0.181 c 1.042,0.042 1.866,-1.185 1.428,-2.139 l -2.139,-4.693 0.612,-1.145 5.09,-0.828 c 1.036,-0.166 1.598,-1.524 0.984,-2.376 l -3.011,-4.183 0.378,-1.246 4.827,-1.805 c 0.982,-0.368 1.269,-1.808 0.501,-2.522 l -3.776,-3.523 0.125,-1.28 4.394,-2.72 c 0.89,-0.548 0.891,-2.021 0.001,-2.571 z"
     style="stroke: none; fill: #000;" />
</svg>
